<svg xmlns="http://www.w3.org/2000/svg" viewBox="0 0 249.83 249.83"><defs><style>.cls-1{fill:#f8e106;fill-rule:evenodd;}.cls-2{fill:none;stroke:#f8e106;stroke-miterlimit:10;stroke-width:2.83px;}</style></defs><title>Asset 2</title><g id="Layer_2" data-name="Layer 2"><g id="header_components" data-name="header components"><path class="cls-1" d="M122.45,210.57h0c-3.39-3.38-.07-12.24,7.43-19.74l16.54-16.54V108.05a8.74,8.74,0,0,1,3.16-6.73l3.25-2.43c3.92-2.66,4.08,2.2,5,7l8,40.68,4.11,4.15,20.31-20.31a95.26,95.26,0,0,1,8.27-7.14v0l-.07-21.58a8.17,8.17,0,0,1,1.2-3.91l2.51-2.88c.7-.73,1.81,0,2.52,1.21l5.73,19v0c5-3,9.24-4.58,10.64-3.17h0c1.39,1.4-.21,5.6-3.11,10.57l18.44,5.57c1.25.71,1.94,1.83,1.21,2.52l-2.88,2.52a8.39,8.39,0,0,1-3.9,1.2L210,134.2a96.29,96.29,0,0,1-7.34,8.54L182.31,163l3.69,3.68,40.69,8c4.79,1,9.65,1.13,7,5.05L231.26,183a8.76,8.76,0,0,1-6.74,3.16H159.14l-17,17C134.69,210.66,125.84,214,122.45,210.57ZM62,145,56.6,127.05c-4.81,2.76-8.84,4.25-10.17,2.88h0c-1.51-1.48.42-6.15,3.68-11.53L30.8,112.55c-1.25-.71-1.94-1.82-1.22-2.52l2.89-2.52a8.27,8.27,0,0,1,3.9-1.19l22.12.1a84.53,84.53,0,0,1,6.39-7.33L85,79l-3.73-3.73L41.49,67.43c-4.79-1-9.65-1.13-7-5.06l2.43-3.24A8.74,8.74,0,0,1,43.66,56H108l17.31-17.29c7.47-7.51,16.32-10.84,19.71-7.42h0c3.39,3.39.07,12.24-7.43,19.74L120.35,68.31v65.78a8.75,8.75,0,0,1-3.16,6.74l-3.25,2.43c-3.92,2.66-4.08-2.2-5-7l-8.21-41.59-3.35-3.35L77.22,111.44a95.33,95.33,0,0,1-9,7.74l.09,20.21a8.43,8.43,0,0,1-1.2,3.91l-2.52,2.88C63.86,146.91,62.75,146.21,62,145Z"/><rect class="cls-2" x="1.42" y="1.42" width="247" height="247" rx="14.17"/></g></g></svg>