<svg id="Layer_1" data-name="Layer 1" xmlns="http://www.w3.org/2000/svg" width="544" height="512" viewBox="0 0 544 512">
  <g>
    <path d="M418.93,192.47h-39.3V188a5.16,5.16,0,0,0-5.16-5.16h-38A5.16,5.16,0,0,0,331.3,188v4.51h-9.67V168.3a8,8,0,0,0-8.05-8.05H229.81a8.05,8.05,0,0,0-8.05,8.05v24.17h-9.67V188a5.15,5.15,0,0,0-5.15-5.16h-38a5.15,5.15,0,0,0-5.15,5.16v4.51H124.5a9,9,0,0,0-9.06,9V405.79a9,9,0,0,0,9.06,9H418.9a9,9,0,0,0,9.05-9V201.49A9,9,0,0,0,418.93,192.47ZM237.87,176.36h67.66v16.11H237.87Z"/>
    <rect x="322.53" y="325.4" width="8.38" height="9.02" transform="translate(-95.14 523.87) rotate(-69.97)"/>
  </g>
</svg>
