<svg id="Layer_1" data-name="Layer 1" xmlns="http://www.w3.org/2000/svg" width="544" height="512" viewBox="0 0 544 512">
  <g>
    <path d="M312.34,188.71a13.6,13.6,0,0,1-13.6-13.6h0v-13.6H244.35v13.67A13.18,13.18,0,0,1,237,187.31c-10,4.55-19.83-2.68-19.83-12.2h0V147.2A12.89,12.89,0,0,1,230,134.31h82.3a13.59,13.59,0,0,1,13.59,13.6v27.2a13.59,13.59,0,0,1-13.59,13.6Z"/>
    <rect x="90.24" y="188.71" width="362.61" height="217.57"/>
    <path d="M452.85,419.87H90.24a13.6,13.6,0,0,1-13.6-13.6V188.71a13.6,13.6,0,0,1,13.6-13.6H452.85a13.6,13.6,0,0,1,13.6,13.6V406.27A13.6,13.6,0,0,1,452.85,419.87Z"/>
  </g>
</svg>
