<svg id="Layer_1" data-name="Layer 1" xmlns="http://www.w3.org/2000/svg" width="544" height="512" viewBox="0 0 544 512">
  <g>
    <path d="M295.63,218.9A12.35,12.35,0,0,1,283.22,207V85.77H263.36V206.39c0,5.8-3.69,11.28-9.33,12.63a12.43,12.43,0,0,1-15.49-12V72a10.37,10.37,0,0,1,9.69-11,10.1,10.1,0,0,1,1.23,0h47.65A10.37,10.37,0,0,1,308,70.74,10.1,10.1,0,0,1,308,72V207A12.35,12.35,0,0,1,295.63,218.9Z"/>
    <rect x="198.83" y="204.9" width="148.91" height="198.55"/>
    <path d="M357.67,406.43a11.91,11.91,0,0,1-11.91,11.91H195.85a11.91,11.91,0,0,1-11.91-11.91h0V206.89A11.92,11.92,0,0,1,195.85,195H345.76a11.92,11.92,0,0,1,11.91,11.92h0ZM208.76,393.52H337.82V219.79H208.76Z"/>
    <path d="M205.73,451.9A17.87,17.87,0,1,1,223.6,434h0A17.87,17.87,0,0,1,205.73,451.9Zm0-23.82a6,6,0,1,0,6,5.95h0A6,6,0,0,0,205.73,428.08Z"/>
    <path d="M342.73,451.9A17.87,17.87,0,1,1,360.6,434h0A17.87,17.87,0,0,1,342.73,451.9Zm0-23.82a6,6,0,1,0,5.95,5.95h0A6,6,0,0,0,342.73,428.08Z"/>
  </g>
</svg>
