<svg id="Layer_1" data-name="Layer 1" xmlns="http://www.w3.org/2000/svg" width="544" height="512" viewBox="0 0 544 512">
  <path d="M329.15,225.52H298.8s-8.2-18.35-18.28-16.88H264.43l.33-45.15V90.67a187.48,187.48,0,0,0,21.09-1.81V74.33a203.79,203.79,0,0,0-29.53-2,203.94,203.94,0,0,0-29.54,2V88.86a187.89,187.89,0,0,0,21.1,1.81v72.8h0v45.16H234.17c-10.08-1.47-18.28,16.88-18.28,16.88h-32.4A28.44,28.44,0,0,0,155,254V433.43a28.11,28.11,0,0,0,.36,4.33c0,.23.06.46.09.69a29,29,0,0,0,1,4c.07.19.15.38.22.58a27.88,27.88,0,0,0,1.66,3.79,0,0,0,0,0,0,0,28.73,28.73,0,0,0,2.26,3.51c.11.16.23.31.34.46a29.8,29.8,0,0,0,2.75,3.07l.24.21A28.3,28.3,0,0,0,171,459l.34.16a28.75,28.75,0,0,0,4.09,1.56l.67.18v11.32a8.25,8.25,0,0,0,5.53,7.95c5.89,1.87,11.35-2.21,11.35-7.5v-10.8H323.83v10.35a8.25,8.25,0,0,0,5.53,7.95c5.89,1.87,11.35-2.21,11.35-7.5V459.35l.56-.25.29-.13a29,29,0,0,0,7.11-4.91l.19-.17a28.12,28.12,0,0,0,2.77-3.1l.33-.44a30,30,0,0,0,2.27-3.51l0-.06a26.32,26.32,0,0,0,1.63-3.73c.08-.22.17-.43.24-.64a28.46,28.46,0,0,0,1-3.92c.05-.26.08-.53.13-.79a28.49,28.49,0,0,0,.35-4.27V254A28.44,28.44,0,0,0,329.15,225.52Zm-81.27,0H227.76c0-3.6,2.87-6.48,6.41-8.44h13.71Zm16.88,0v-8.44h15.76c3.53,2,6.41,4.84,6.41,8.44Z"/>
</svg>
