<svg id="Layer_1" data-name="Layer 1" xmlns="http://www.w3.org/2000/svg" width="544" height="512" viewBox="0 0 544 512">
  <path d="M182.37,423.14c-20.48,0-20.48-19.48-20.48-19.48V189.41c0-19.47,20.48-19.47,20.48-19.47h50.27V89.51c-6.86,0-12.07-7.27-8.75-14.72a9.51,9.51,0,0,1,8.78-5.39h77.86a9.93,9.93,0,0,1,9.54,6.65c2.24,7-2.77,13.46-9.23,13.46v80.43h47.88c19.14,0,19.14,19.47,19.14,19.47V403.67c0,19.47-19.14,19.47-19.14,19.47H340.63v9.8h0a9.32,9.32,0,1,1-18.62,0h0v-9.8H221.47v9.8h0a9.32,9.32,0,1,1-18.62,0v-9.8ZM244.63,88v79.71h55V88Z" fill-rule="evenodd"/>
</svg>
