<svg id="Layer_1" data-name="Layer 1" xmlns="http://www.w3.org/2000/svg" width="544" height="512" viewBox="0 0 544 512">
  <g>
    <path d="M333.6,232.06v-12.7a11.1,11.1,0,0,0-11.1-11.1H225.1a11.1,11.1,0,0,0-11.1,11.1v40.16H333.6ZM218.27,219.72c.1-2.32,2-4.27,4.36-7.19h99c2.31,2.92,4.27,4.87,3.4,7.19v5.63H218.27Zm12.82,14.17h4.27V246.7h-4.27Z"/>
    <path d="M346.83,273.4a15.35,15.35,0,0,0,3.85-10.07v-43a29.11,29.11,0,0,0-29.11-29.11h-9.33V154.05a22.67,22.67,0,0,0-22.67-22.67H258a22.67,22.67,0,0,0-22.67,22.67v37.13H221.75a29.11,29.11,0,0,0-29.11,29.11v43a15.36,15.36,0,0,0,3.86,10.07c-24.1,4.71-42.3,25.3-42.3,49.91v80.42a26.64,26.64,0,0,0,26.64,26.64h20.35v7.68a5.12,5.12,0,0,0,5.11,5.13h11.14a5.12,5.12,0,0,0,5.1-5.13v-7.68H325.05v7.68a5.13,5.13,0,0,0,5.11,5.13H341.3a5.12,5.12,0,0,0,5.11-5.13v-7.68h16.07a26.65,26.65,0,0,0,26.64-26.65V323.31C389.12,298.7,370.92,278.11,346.83,273.4Zm-55.95-82.22H256.71V150.7a2.25,2.25,0,0,1,2.24-2.24h29.7a2.24,2.24,0,0,1,2.23,2.24ZM214,434.64h-8.54v-4.27H214Zm123.87,0h-8.54v-4.27h8.54Z"/>
  </g>
</svg>
