<svg id="Layer_1" data-name="Layer 1" xmlns="http://www.w3.org/2000/svg" width="544" height="512" viewBox="0 0 544 512">
  <path d="M409.25,281.32A61.58,61.58,0,0,0,385,235.07h0a62.89,62.89,0,0,0-38.82-13.28H336.05l-8.22-28.31c-4.69-15.93-12.3-26.06-22.59-30.3v-1.7a6.64,6.64,0,0,0-6.65-6.65H245a6.71,6.71,0,0,0-6.69,6.69v2.41c-10.25,4.2-18.05,14.44-22.58,29.92l-8.32,27.94h-8.9a64.78,64.78,0,0,0-39.56,13.28h0a61.5,61.5,0,0,0-24.64,46.25h-.18V363a44.92,44.92,0,0,0,46.12,44.85h24.57v8.39c-.54,2.58,4.08,2.77,4.08,2.77h9.82a4.72,4.72,0,0,0,4.7-4.71v-6.45h93v6.47a4.69,4.69,0,0,0,4.68,4.69H334a4.72,4.72,0,0,0,4.71-4.71v-6.45H362.9c25.65,0,46.52-18.4,46.52-41V281.32ZM237.64,188.5a6.69,6.69,0,0,0,5.77,3.53h53a6.69,6.69,0,0,0,5.77-3.53,14.57,14.57,0,0,1,6.8,12.33v21H230.84v-21A14.57,14.57,0,0,1,237.64,188.5Z"/>
</svg>
