<svg id="Layer_1" data-name="Layer 1" xmlns="http://www.w3.org/2000/svg" width="544" height="512" viewBox="0 0 544 512">
  <path d="M371.13,297.5l-1.32-68.63V185a31.07,31.07,0,0,0-6-18.51,23.78,23.78,0,0,0-20.31-11.25H326.34V134.73c5.29-14.55-5.69-26.36-19.21-26.29H238.19c-13.52-.07-24.5,11.74-19.21,26.29v20.49H201.84a27,27,0,0,0-21.63,11.25A29.08,29.08,0,0,0,173.35,185V297.5h.84V336c0,16.43,12.38,29.75,27.65,29.75h4.76c-8.89.13-16.08,8.47-16.08,18.71s7.32,18.73,16.32,18.73,16.32-8.39,16.32-18.73-7.22-18.58-16.11-18.71H337c-8.89.13-16.09,8.47-16.09,18.71s7.33,18.73,16.32,18.73,16.33-8.39,16.33-18.73-7.22-18.58-16.11-18.71h4.72c15.26,0,27.64-13.32,27.64-29.75V297.5ZM306.16,134c.25-.72.48-1.44.65-2.15h.32C311.4,126.22,314.91,129.5,306.16,134ZM287,131.83h12.95c1.55.78,3.31,1.66,5.32,2.59l-.64.31v20.49H240.72V134.73l-.65-.31c2-.93,3.77-1.81,5.32-2.59H287Zm-48.79,0h.32c.17.71.4,1.43.65,2.15C230.41,129.5,233.93,126.22,238.19,131.83Z" fill-rule="evenodd"/>
</svg>
