<svg id="Layer_1" data-name="Layer 1" xmlns="http://www.w3.org/2000/svg" width="544" height="512" viewBox="0 0 544 512">
  <path d="M320.14,169.62H303.06V81c0-19.69-13.68-37.8-33.76-41.74C241.86,33.9,217.66,54,217.66,79.4v90.22H200.58c-28.3,0-51.24,22-51.24,49.21V415.67c0,27.14,23,49.21,51.24,49.21v8.2a8.55,8.55,0,0,0,17.08,0v-8.2h85.4v8.2a8.55,8.55,0,0,0,17.08,0v-8.2c28.26,0,51.25-22.07,51.25-49.21V218.83C371.39,191.65,348.44,169.62,320.14,169.62ZM234.74,79.4c0-16.15,16.31-28.73,33.95-23.33C279.31,59.32,286,69.49,286,80.2v89.42H234.74Z"/>
</svg>
