<svg id="Layer_1" data-name="Layer 1" xmlns="http://www.w3.org/2000/svg" width="544" height="512" viewBox="0 0 544 512">
  <path d="M414.48,213.12h-63l-11.89-39.37c-6.93-23.12-18.49-37.81-33.82-43.35v-.19l-2.4-.63-.52-.14-.44-.11c-.09,0-.19,0-.28-.06a41.72,41.72,0,0,0-4.81-.93l-.91-.13a46.14,46.14,0,0,0-5.31-.34H246.56a46.81,46.81,0,0,0-5.34.34l-.84.12a41.24,41.24,0,0,0-5,1l-.11,0-.18,0c-.3.09-.62.16-.92.24l-2.26.6v.18c-15.39,5.53-27,20.22-33.92,43.36l-11.79,39.37H128.86c-37.21,0-67.48,29.17-67.48,65v40.47c0,35.85,30.27,65,67.48,65H414.48c37.21,0,67.48-29.17,67.48-65V278.14C482,242.29,451.69,213.12,414.48,213.12Zm-141.26,0h-47V182.87a20.74,20.74,0,0,1,15.34-20.24c.44-.13.91-.21,1.38-.3a18.68,18.68,0,0,1,3.36-.36H297a18.6,18.6,0,0,1,3.45.37c.41.07.82.15,1.23.26a20.74,20.74,0,0,1,15.5,20.27v30.25H273.22Z"/>
</svg>
