<svg id="Layer_1" data-name="Layer 1" xmlns="http://www.w3.org/2000/svg" width="544" height="512" viewBox="0 0 544 512">
  <path d="M338.23,168.69H318V112.86h0a6.94,6.94,0,0,0-7-6.77H233.6a7.61,7.61,0,0,0-7.41,6.77v55.83H206.57A26.29,26.29,0,0,0,180.28,195V384.43a26.29,26.29,0,0,0,26.29,26.28h2.92v3.75a16.15,16.15,0,1,0,32.29,0,11.71,11.71,0,0,0-.41-3.75h60a11.45,11.45,0,0,0-.42,3.75,16.15,16.15,0,1,0,32.29,0,11.71,11.71,0,0,0-.41-3.75h4.75a26.29,26.29,0,0,0,26.29-26.28V194.88C364.72,180.33,352.72,168.69,338.23,168.69ZM238.7,127h66.77v41.73H238.7Z"/>
</svg>
