<svg id="Layer_1" data-name="Layer 1" xmlns="http://www.w3.org/2000/svg" width="544" height="512" viewBox="0 0 544 512">
  <g>
    <circle cx="458.76" cy="225.01" r="43.84"/>
    <path d="M192.09,224.26a8.66,8.66,0,0,1,.95,3.41,8.76,8.76,0,0,1-8.12,9.36L51.71,246.46a8.68,8.68,0,0,1-6.57-2.3,8.9,8.9,0,0,1-2.84-6.35l-.46-39.21a8.77,8.77,0,1,1,17.54-.21l.36,29.93,123.93-8.77A8.71,8.71,0,0,1,192.09,224.26Z"/>
    <path d="M499.6,361.77a8.78,8.78,0,0,1-8.77,12.73L459.41,371a8.76,8.76,0,1,1,2-17.42l31.41,3.55A8.73,8.73,0,0,1,499.6,361.77Z"/>
    <g>
      <path d="M176.76,331.81v.8a61.36,61.36,0,0,0,62.09,60.65l221.86-2.65a8.76,8.76,0,0,0,8.66-8.88l-.55-46.2Z"/>
      <path d="M178,222.16a8.87,8.87,0,0,0-2.5,6.22l1,85.88L468.64,318l-.28-23.26a8.77,8.77,0,0,0-8.84-8.67c-32.87.34-61.44-25.3-61.83-60.33a8.68,8.68,0,0,0-2.63-6.18,8.78,8.78,0,0,0-6.24-2.51L184.19,219.5A8.85,8.85,0,0,0,178,222.16Z"/>
    </g>
  </g>
</svg>
