<svg id="Layer_1" data-name="Layer 1" xmlns="http://www.w3.org/2000/svg" width="544" height="512" viewBox="0 0 544 512">
  <path d="M395.71,195.37l-28,.06V191.6H346v3.83l-33.13-.06V176.7c0-8.69-9-15.74-20.1-15.74H256c-11.11,0-20.12,7-20.12,15.75v18.66l-27.25.06V191.6H186.32l.14,3.77H158.57c-11.91,0-21.57,7.56-21.57,16.88V333.32c0,9.33,9.66,16.89,21.58,16.89H395.71c11.91,0,21.57-7.56,21.57-16.88V212.25C417.28,202.93,407.62,195.37,395.71,195.37Zm-93.84,0H252.41V177.21c0-1.85,1.92-3.35,4.28-3.35h40.9c2.36,0,4.28,1.51,4.28,3.36Z"/>
</svg>
