<?xml version="1.0" standalone="no"?>
<!DOCTYPE svg PUBLIC "-//W3C//DTD SVG 20010904//EN"
 "http://www.w3.org/TR/2001/REC-SVG-20010904/DTD/svg10.dtd">
<svg version="1.0" xmlns="http://www.w3.org/2000/svg"
 width="770.000000pt" height="770.000000pt" viewBox="0 0 770.000000 770.000000"
 preserveAspectRatio="xMidYMid meet">
<metadata>
Created by potrace 1.11, written by Peter Selinger 2001-2013
</metadata>
<g transform="translate(0.000000,770.000000) scale(0.100000,-0.100000)"
fill="#000000" stroke="none">
<path d="M0 3850 l0 -3850 3850 0 3850 0 0 3850 0 3850 -3850 0 -3850 0 0
-3850z m3810 3330 c0 -5 -4 -10 -10 -10 -5 0 -10 5 -10 10 0 6 5 10 10 10 6 0
10 -4 10 -10z m5 -29 c7 -12 -12 -24 -25 -16 -11 7 -4 25 10 25 5 0 11 -4 15
-9z m13 -42 c2 -8 6 -21 9 -29 3 -8 7 -19 9 -25 2 -5 16 -46 31 -89 l28 -79
89 2 c65 2 91 -1 97 -11 7 -10 9 -10 9 0 0 8 18 12 55 12 52 0 69 -10 43 -26
-6 -4 -8 -3 -5 2 10 17 -27 10 -45 -8 -21 -21 -16 -23 15 -7 21 10 21 9 -2
-10 -12 -12 -27 -18 -32 -15 -5 3 -9 -2 -9 -12 0 -12 -6 -15 -21 -11 -14 4
-19 1 -16 -7 3 -6 -24 -32 -59 -56 -44 -31 -61 -50 -57 -60 47 -116 63 -174
51 -188 -11 -13 -10 -15 5 -9 9 3 17 2 17 -3 0 -6 -8 -10 -17 -11 -14 0 -13
-2 5 -9 23 -10 26 -18 14 -37 -6 -10 -13 -9 -30 3 -12 8 -20 20 -17 25 3 5 0
6 -8 3 -15 -5 -80 43 -73 55 3 4 0 13 -6 21 -8 12 -9 12 -4 -2 3 -10 1 -18 -4
-18 -6 0 -10 8 -10 18 0 13 -2 14 -9 4 -7 -11 -9 -10 -15 3 -3 9 -10 14 -15
11 -5 -3 -14 1 -21 9 -14 17 -70 17 -67 0 1 -5 -5 -10 -13 -10 -8 0 -18 -8
-23 -19 -5 -12 -14 -17 -26 -13 -12 3 -18 0 -15 -7 6 -16 -82 -77 -101 -70
-11 5 -13 2 -8 -12 4 -12 3 -15 -5 -10 -13 8 -16 58 -5 70 4 4 15 -3 25 -16
16 -20 17 -20 11 -3 -6 18 -5 19 13 5 18 -14 18 -14 5 2 -7 10 -17 16 -21 13
-4 -3 -12 1 -18 8 -7 8 -3 33 14 82 13 38 28 73 33 78 5 5 6 25 4 44 -4 27 -2
33 8 28 8 -6 10 -4 4 5 -6 10 -10 10 -20 -3 -11 -15 -14 -15 -36 1 -45 31 -78
65 -73 73 3 5 -2 6 -11 3 -10 -4 -28 7 -52 32 -20 22 -33 33 -29 26 9 -14 -5
-9 -43 17 -9 6 45 9 155 9 93 0 169 4 170 8 1 23 19 85 39 139 13 33 25 67 28
76 6 19 49 18 55 -2z m-1473 -369 c-3 -5 -1 -12 5 -15 6 -4 8 -16 4 -28 -3
-12 -3 -19 1 -14 10 8 57 -121 49 -134 -3 -5 0 -9 6 -9 7 0 10 -7 7 -15 -4 -8
-2 -17 2 -20 5 -2 84 -5 175 -6 164 0 166 -1 144 -19 -14 -11 -27 -15 -32 -9
-6 5 -15 9 -20 9 -6 0 -5 -4 3 -9 18 -12 3 -34 -17 -26 -9 3 -13 3 -10 -1 8
-7 -65 -64 -82 -64 -5 0 -9 -5 -8 -11 2 -6 -3 -14 -11 -17 -9 -3 -11 0 -6 8 5
9 4 11 -4 6 -6 -4 -9 -11 -7 -15 3 -4 -8 -17 -23 -29 -18 -13 -28 -30 -28 -46
0 -14 3 -23 8 -20 5 3 10 -1 10 -8 5 -45 7 -56 13 -66 3 -6 0 -13 -6 -15 -8
-4 -7 -6 4 -6 16 -1 28 -26 61 -127 l14 -41 -33 21 c-24 15 -32 27 -29 41 3
11 2 14 -1 8 -7 -16 -26 -17 -42 -1 -9 9 -9 15 1 27 11 14 10 14 -6 2 -15 -12
-20 -11 -40 5 -43 37 -56 52 -49 60 4 4 2 4 -4 1 -6 -4 -20 0 -30 8 -25 19
-48 19 -64 0 -10 -12 -16 -13 -28 -3 -13 10 -14 10 -8 1 4 -8 2 -13 -4 -13 -6
0 -8 -4 -5 -10 3 -5 3 -10 -2 -10 -4 0 -21 -11 -37 -25 -17 -14 -36 -23 -43
-21 -7 3 -15 0 -19 -6 -5 -7 -2 -8 7 -4 8 4 1 -3 -16 -16 -16 -13 -31 -22 -33
-20 -1 1 -14 -10 -29 -25 -14 -16 -20 -20 -13 -10 7 9 9 17 4 17 -4 0 -3 5 4
12 7 7 12 22 12 34 0 13 5 26 10 29 6 3 10 19 10 34 0 15 3 31 8 35 4 4 7 11
8 14 1 22 18 77 29 99 10 20 11 28 2 38 -7 7 -16 10 -21 7 -5 -3 -5 1 0 9 4 8
9 19 10 26 3 16 -27 26 -40 13 -8 -8 -6 -9 5 -5 10 4 19 0 22 -9 7 -19 6 -19
-28 -6 -14 5 -23 15 -20 20 4 6 1 9 -7 8 -7 -2 -12 3 -10 10 1 6 -1 12 -5 11
-16 -2 -53 14 -53 22 0 5 -5 9 -11 9 -18 0 -59 37 -51 45 4 5 2 6 -3 2 -6 -3
-21 1 -35 8 -22 12 -3 14 143 14 129 1 172 4 182 15 8 7 12 16 9 19 -6 5 26
118 36 127 3 3 6 12 7 20 1 8 10 38 20 66 17 49 18 50 30 26 7 -13 11 -28 8
-32z m2912 20 c-2 -10 0 -24 5 -31 8 -11 9 -10 4 4 -3 9 -2 17 3 17 5 0 12
-11 15 -24 3 -13 8 -32 12 -43 3 -10 -1 -7 -10 7 -8 14 -15 19 -16 13 0 -7 8
-21 18 -31 22 -22 53 -118 45 -140 -5 -11 -3 -13 7 -7 9 6 12 4 8 -7 -4 -8 -1
-15 5 -15 7 -1 86 -2 176 -3 l165 -1 -45 -27 c-24 -15 -47 -27 -51 -27 -4 0
-16 -9 -27 -20 -37 -37 -51 -46 -61 -40 -6 4 -7 -1 -3 -11 4 -12 3 -15 -5 -10
-7 4 -12 3 -12 -3 0 -12 -55 -43 -63 -35 -9 9 0 -60 12 -89 6 -16 9 -33 5 -38
-3 -5 0 -9 6 -9 6 0 9 -4 5 -9 -3 -5 -1 -12 4 -16 6 -3 8 -12 4 -20 -3 -8 -1
-15 4 -15 6 0 15 -19 22 -42 7 -24 15 -51 17 -60 3 -10 1 -18 -5 -18 -6 0 -11
8 -11 17 0 9 -3 14 -6 10 -9 -9 -66 22 -59 33 3 5 0 12 -6 16 -8 4 -9 3 -5 -4
12 -21 -10 -13 -37 12 -14 13 -28 22 -30 20 -3 -3 -7 2 -10 11 -4 8 -2 15 4
15 6 0 8 4 4 10 -3 5 -12 7 -20 4 -7 -3 -25 2 -39 11 -22 15 -31 15 -56 5 -17
-7 -30 -16 -30 -21 0 -5 -7 -9 -15 -9 -8 0 -15 -4 -15 -10 0 -14 -83 -68 -98
-63 -7 3 -11 0 -10 -7 2 -7 -14 -23 -34 -36 -21 -13 -38 -20 -38 -14 0 5 3 10
8 10 4 0 8 14 8 32 1 17 9 37 17 43 9 7 15 14 12 16 -2 3 8 46 24 96 16 50 26
95 22 100 -3 4 -23 21 -44 37 -28 20 -36 31 -28 39 6 6 11 15 11 21 0 5 -6 2
-13 -8 -13 -18 -16 -17 -55 11 -23 17 -38 33 -35 37 3 3 -3 6 -15 6 -11 0 -34
11 -49 25 -27 23 -27 24 -6 25 12 0 25 -4 28 -10 3 -5 12 -10 18 -10 7 0 6 4
-3 10 -10 7 30 10 123 10 130 0 139 1 144 20 3 11 9 20 13 20 4 0 11 21 15 47
5 34 9 43 17 32 7 -10 8 -8 3 8 -3 12 1 38 10 58 8 21 15 46 15 56 0 11 4 19
10 19 5 0 6 7 3 17 -5 11 -3 14 6 9 7 -5 11 -16 8 -26z m-1712 -350 c3 -5 1
-10 -4 -10 -6 0 -11 5 -11 10 0 6 2 10 4 10 3 0 8 -4 11 -10z m-2270 -717 c10
-32 19 -65 20 -73 2 -8 4 -17 6 -20 1 -3 3 -9 4 -15 1 -5 4 -17 7 -25 3 -8 15
-40 26 -72 11 -31 18 -58 16 -61 -3 -2 10 -5 28 -5 18 0 86 0 151 -1 101 -1
117 -3 117 -17 0 -12 -7 -15 -25 -12 -14 3 -28 1 -32 -5 -3 -6 -1 -7 5 -3 16
10 15 -2 -2 -19 -7 -8 -16 -11 -20 -8 -3 4 -6 1 -6 -7 0 -10 -3 -10 -14 -1
-12 10 -14 9 -12 -6 3 -21 -39 -57 -55 -47 -7 4 -9 3 -5 -4 3 -6 -3 -13 -14
-17 -11 -3 -20 -11 -20 -16 0 -6 -5 -7 -10 -4 -6 4 -9 -13 -8 -44 1 -28 6 -51
11 -51 5 0 7 -7 3 -15 -3 -8 -2 -15 3 -15 8 0 58 -160 53 -172 -1 -5 2 -8 6
-8 5 0 9 -7 9 -16 0 -15 -1 -15 -12 0 -7 8 -15 13 -19 9 -4 -4 -4 1 0 11 5 13
2 17 -12 14 -15 -2 -19 2 -17 22 1 14 0 19 -3 13 -9 -20 -22 -16 -72 20 -72
50 -92 69 -85 80 4 7 -1 8 -12 3 -16 -6 -16 -4 -4 11 13 17 13 17 -13 0 -19
-12 -29 -14 -34 -5 -5 7 -3 8 6 3 9 -5 11 -4 6 4 -10 16 -26 4 -19 -14 3 -11
1 -13 -10 -9 -8 3 -18 0 -23 -7 -4 -8 -3 -10 4 -5 7 4 12 4 12 -1 -1 -10 -94
-70 -98 -63 -2 3 -8 -3 -13 -12 -13 -23 -67 -49 -72 -35 -2 6 -6 3 -10 -6 -3
-9 -2 -17 4 -17 6 0 7 -4 4 -10 -3 -5 -14 -10 -23 -10 -13 0 -14 2 -4 9 8 4
13 12 13 17 -1 10 19 74 27 89 3 5 7 22 9 39 2 16 8 35 14 43 6 7 8 13 3 13
-5 0 -1 5 9 11 9 5 17 15 17 20 0 6 -4 8 -9 4 -6 -3 -6 6 -1 23 4 16 4 35 -1
43 -5 8 -3 17 4 22 8 6 5 7 -6 3 -12 -4 -35 5 -63 26 -40 28 -62 50 -32 32 7
-4 8 -3 4 5 -4 7 -13 10 -19 8 -7 -2 -34 14 -60 35 -27 21 -54 38 -60 38 -5 0
-8 3 -4 6 3 3 68 6 144 6 123 -1 138 -3 145 -19 6 -16 7 -15 7 3 1 12 8 27 16
34 8 7 15 19 15 27 0 8 3 12 8 10 4 -3 8 5 8 16 1 12 4 29 6 37 3 8 8 32 13
53 5 28 11 37 23 32 12 -4 12 -3 3 9 -9 10 -9 20 0 42 7 16 11 35 10 42 -1 6
3 12 8 12 6 0 8 7 5 15 -4 8 -4 15 -1 15 3 0 13 -26 22 -57z m5051 32 c-3 -8
-2 -15 3 -15 4 0 12 -16 18 -35 8 -25 8 -35 1 -35 -6 0 -4 -8 4 -17 21 -24 41
-88 40 -130 0 -13 4 -21 8 -18 4 3 11 -5 15 -18 4 -12 8 -25 10 -29 1 -5 3
-14 4 -20 1 -10 3 -10 9 -1 5 7 59 12 160 15 165 4 163 5 92 -42 -12 -8 -29
-22 -38 -30 -9 -8 -17 -14 -19 -12 -7 5 -26 2 -20 -4 3 -4 -17 -22 -46 -41
-57 -38 -97 -78 -97 -95 0 -7 7 -3 15 8 14 18 14 18 16 -6 1 -14 1 -29 0 -34
-1 -5 2 -12 7 -15 5 -3 19 -40 31 -81 13 -41 26 -79 31 -85 12 -17 19 -55 9
-55 -5 0 -18 9 -28 19 -11 11 -31 27 -45 36 -14 10 -26 24 -26 32 0 8 -5 11
-11 8 -14 -9 -90 45 -82 58 3 5 2 7 -4 4 -6 -4 -19 1 -29 9 -10 9 -13 12 -5 8
9 -5 12 -3 7 4 -9 16 -72 -10 -97 -40 -11 -12 -21 -19 -24 -17 -2 3 7 17 21
32 15 16 20 27 12 27 -9 0 -9 3 2 10 8 5 10 10 4 10 -6 0 -19 -10 -30 -22 -10
-12 -13 -18 -6 -14 14 9 16 0 2 -17 -5 -7 -21 -27 -36 -44 -23 -30 -54 -48
-39 -23 3 6 -1 7 -9 4 -9 -3 -14 -9 -11 -14 4 -6 -10 -20 -58 -59 -15 -12 -17
-11 -14 5 9 52 41 144 46 135 4 -5 7 9 7 31 1 22 5 43 10 47 15 10 17 80 2 94
-7 7 -27 22 -45 32 -18 10 -30 22 -27 26 2 4 -1 11 -7 15 -8 4 -9 3 -5 -4 11
-17 -5 -14 -26 5 -23 21 -24 40 0 22 15 -13 16 -12 3 4 -10 13 -17 14 -27 6
-10 -8 -16 -5 -26 10 -7 12 -17 21 -23 21 -5 0 -20 8 -32 18 -22 16 -16 17
142 15 90 -1 164 2 163 5 -3 12 36 127 45 133 4 3 7 10 6 15 -6 21 13 84 23
78 7 -4 8 -3 4 4 -4 7 -4 18 1 25 4 6 8 17 9 22 0 6 2 16 2 23 1 6 5 12 8 12
3 0 4 -7 0 -15z m-5434 -1549 c0 -15 2 -25 6 -22 3 4 18 -34 34 -84 15 -50 33
-97 40 -104 18 -17 48 -27 48 -16 0 6 53 10 133 10 l132 -1 -24 -20 c-14 -11
-32 -17 -45 -14 -12 3 -15 2 -8 -1 23 -11 12 -24 -15 -19 -19 4 -22 3 -10 -3
15 -6 11 -13 -30 -41 -27 -19 -41 -26 -33 -15 14 17 14 18 -2 6 -9 -8 -23 -10
-30 -6 -7 4 -10 4 -6 -1 4 -4 2 -15 -5 -24 -11 -14 -10 -15 8 -1 19 14 19 14
6 -2 -7 -10 -17 -16 -21 -13 -12 7 -36 -28 -34 -50 7 -52 9 -60 16 -65 4 -3 8
-17 10 -30 2 -14 7 -30 11 -37 18 -29 35 -103 25 -110 -7 -4 -6 -10 3 -17 8
-6 21 -20 29 -31 10 -13 2 -10 -25 10 -22 16 -44 34 -50 40 -5 7 -29 24 -53
39 -25 16 -40 31 -36 38 4 7 3 8 -5 4 -7 -5 -26 3 -46 18 -46 36 -69 33 -127
-16 -41 -34 -52 -39 -60 -27 -8 11 -9 11 -5 -3 7 -21 -12 -37 -46 -40 -14 -1
-23 -6 -21 -10 3 -5 10 -6 15 -3 5 4 9 4 9 1 0 -3 -18 -15 -40 -26 -45 -23
-48 -19 -20 28 11 18 20 38 20 45 0 23 43 156 49 152 9 -5 7 47 -2 62 -4 6 -1
14 5 17 8 3 6 4 -3 3 -22 -3 -171 101 -163 114 3 5 0 8 -8 7 -7 -2 -12 2 -11
9 2 7 -3 10 -10 7 -7 -2 -21 2 -32 11 -18 13 -6 15 127 14 81 0 152 3 159 7 8
5 11 2 7 -7 -4 -10 1 -15 13 -15 11 0 19 4 19 8 0 4 -4 8 -10 8 -12 0 -14 33
-2 44 4 4 7 11 7 14 1 19 29 103 36 108 4 2 5 12 2 21 -4 10 -2 14 4 10 7 -5
9 0 6 13 -3 11 0 20 6 20 5 0 8 7 5 15 -4 8 -1 15 6 15 6 0 8 5 5 10 -4 6 -4
19 0 28 6 14 10 10 22 -18 9 -19 15 -48 15 -64z m5862 -13 c16 -54 33 -117 39
-140 9 -33 19 -46 50 -62 21 -11 35 -16 32 -11 -4 6 43 10 127 10 118 -1 131
-2 113 -15 -11 -8 -27 -20 -35 -27 -8 -7 -21 -12 -28 -10 -8 2 -11 -1 -8 -7 4
-5 -19 -27 -50 -48 -87 -59 -128 -93 -114 -93 7 0 10 -3 7 -7 -4 -3 -3 -11 2
-17 15 -20 20 -60 9 -73 -8 -11 -7 -12 7 -6 14 5 17 3 12 -10 -4 -10 -2 -17 4
-17 7 0 9 -9 6 -21 -3 -12 -3 -18 0 -15 3 3 12 -6 20 -20 11 -22 11 -30 1 -42
-10 -13 -10 -14 0 -8 8 5 16 -2 22 -20 6 -15 9 -29 6 -31 -7 -8 -46 17 -46 29
0 6 -3 9 -6 5 -3 -3 -19 8 -35 24 -15 16 -33 29 -39 29 -19 0 -69 43 -63 54 3
6 3 8 -2 4 -4 -4 -24 2 -43 14 -24 15 -37 18 -40 10 -2 -7 -16 -9 -35 -7 -24
4 -26 3 -9 -3 22 -7 19 -10 -40 -52 -35 -25 -65 -45 -68 -45 -3 0 -18 -13 -35
-29 -16 -15 -37 -32 -47 -37 -14 -8 -15 -5 -5 26 6 19 14 35 19 35 5 0 4 -10
-2 -22 -11 -22 -11 -22 4 -4 10 12 12 24 7 29 -10 10 -3 49 8 43 3 -2 7 6 8
17 4 50 24 127 32 127 4 0 8 19 8 41 0 23 -3 36 -7 30 -5 -9 -11 -7 -21 5 -12
15 -12 17 0 9 9 -5 12 -4 7 3 -4 6 -13 9 -21 6 -8 -3 -21 5 -30 20 -10 14 -21
23 -26 21 -9 -6 -91 50 -83 57 2 3 -9 11 -26 18 -16 7 -30 16 -30 21 0 4 60 9
134 11 74 2 132 0 129 -4 -2 -5 0 -8 6 -8 5 0 13 5 16 11 4 6 13 8 21 5 9 -3
14 0 13 7 -4 17 11 78 24 102 7 11 13 31 14 44 1 13 6 27 11 30 5 3 8 14 6 24
-1 9 2 14 8 11 7 -4 7 2 3 17 -7 20 -6 22 7 12 12 -10 14 -7 12 17 -4 56 12
30 40 -67z m-5449 -1493 c10 -36 19 -72 20 -80 5 -34 27 -79 42 -84 8 -3 71
-6 139 -7 80 0 124 -4 124 -11 0 -6 6 -6 15 2 9 7 18 10 22 7 10 -10 -17 -36
-31 -31 -8 3 -16 -2 -19 -10 -4 -9 -13 -16 -22 -16 -8 0 -15 -4 -15 -9 0 -4
-18 -20 -39 -34 -38 -25 -40 -26 -36 -5 3 11 1 18 -2 14 -4 -4 -8 -16 -10 -29
-2 -12 -9 -26 -15 -32 -8 -7 -9 -6 -3 3 6 11 3 11 -13 1 -12 -7 -19 -16 -16
-20 2 -4 -2 -9 -8 -11 -10 -4 -9 -20 6 -74 11 -38 19 -77 20 -86 0 -10 4 -18
9 -18 5 0 6 -7 3 -16 -3 -8 1 -22 9 -30 8 -9 15 -26 15 -40 0 -13 5 -24 10
-24 6 0 10 -4 10 -10 0 -5 -16 -2 -35 7 -24 12 -31 19 -23 25 9 5 5 8 -10 8
-29 0 -74 29 -65 43 3 5 1 7 -5 3 -6 -3 -18 4 -26 16 -9 12 -16 18 -16 13 0
-6 -5 -3 -10 5 -5 8 -13 15 -17 16 -4 0 -20 7 -36 14 -25 12 -30 11 -57 -8
-16 -12 -34 -22 -40 -22 -5 0 -10 -5 -10 -12 0 -6 -3 -8 -6 -5 -4 3 -15 -5
-26 -18 -11 -14 -23 -23 -28 -20 -4 3 -10 -2 -14 -10 -3 -8 -13 -15 -21 -15
-9 0 -14 4 -10 9 3 5 0 13 -6 17 -8 4 -9 3 -5 -4 4 -7 2 -12 -3 -12 -6 0 -11
-5 -11 -11 0 -5 5 -7 10 -4 25 16 6 -13 -22 -32 -32 -22 -57 -22 -27 0 9 7 14
18 11 26 -3 9 0 11 8 6 10 -6 12 -4 7 8 -3 8 9 63 27 121 27 89 34 104 46 93
8 -7 7 -1 -3 16 -16 25 -15 32 6 28 5 -1 6 3 2 9 -5 8 -11 8 -20 0 -10 -8 -18
-6 -34 11 -12 13 -21 19 -21 14 0 -5 -6 -1 -13 9 -7 9 -22 22 -33 29 -47 27
-109 71 -112 79 -2 4 -9 5 -14 2 -6 -4 -8 -2 -4 4 3 5 0 12 -6 15 -7 2 55 5
139 6 84 1 158 4 166 7 8 3 17 23 21 45 3 21 10 39 14 39 4 0 8 14 8 32 1 18
6 34 13 36 6 2 9 7 6 12 -3 5 0 21 6 37 7 15 13 33 14 38 1 6 5 25 10 44 l8
33 17 -43 c9 -24 24 -73 35 -109z m5025 81 c-10 -23 -10 -23 7 -11 10 8 15 10
11 6 -4 -5 -4 -14 1 -20 16 -19 43 -125 35 -137 -4 -7 -3 -9 3 -6 6 4 14 0 17
-9 3 -8 2 -12 -4 -9 -6 3 -10 2 -10 -3 0 -6 7 -12 15 -16 8 -3 15 -14 15 -24
0 -18 9 -20 108 -22 59 -1 128 -2 155 -2 50 1 57 -6 30 -30 -30 -25 -47 -33
-38 -17 5 8 5 11 0 7 -4 -4 -14 -3 -20 2 -9 8 -15 6 -19 -6 -4 -9 -4 -19 -1
-22 3 -3 5 0 5 6 0 7 5 12 10 12 20 0 9 -16 -32 -48 -23 -18 -48 -30 -55 -28
-7 3 -10 -1 -6 -10 3 -8 -1 -14 -11 -14 -9 0 -16 -4 -16 -8 0 -5 -11 -15 -25
-22 -17 -9 -22 -17 -15 -24 6 -6 6 -14 -2 -23 -9 -11 -8 -13 3 -11 8 2 13 -4
13 -14 -1 -10 1 -18 5 -18 4 0 13 -24 20 -52 8 -29 20 -65 27 -79 13 -27 9
-69 -8 -69 -5 0 -7 4 -4 9 3 5 -2 8 -12 7 -9 0 -16 4 -15 10 1 7 -5 11 -15 10
-11 -1 -16 6 -15 18 1 13 -2 15 -10 7 -12 -12 -74 35 -69 55 2 8 -5 10 -18 7
-12 -3 -22 0 -25 9 -12 31 -93 11 -118 -29 -4 -7 -13 -13 -20 -13 -7 0 -18 -9
-25 -21 -9 -14 -20 -19 -33 -16 -10 3 -17 2 -15 -1 2 -4 -10 -18 -27 -32 -17
-14 -28 -18 -23 -10 4 8 -2 4 -15 -10 -13 -14 -21 -21 -16 -16 4 6 7 21 7 34
0 13 4 20 10 17 6 -3 10 -1 10 6 0 9 3 9 14 0 11 -9 16 -9 22 0 4 7 3 9 -4 5
-6 -3 -13 -2 -17 4 -4 6 -11 7 -17 4 -13 -8 1 38 14 47 5 3 8 10 7 15 -5 15
11 84 19 84 4 0 8 20 10 45 2 26 -2 45 -8 45 -5 0 -10 7 -10 16 0 8 -4 12 -10
9 -5 -3 -10 -1 -10 5 0 6 -4 9 -9 6 -4 -3 -19 6 -32 21 -13 14 -19 24 -14 20
6 -3 17 -1 25 4 11 6 5 8 -17 4 -18 -3 -37 0 -45 7 -7 7 -30 24 -50 38 -21 14
-38 29 -38 33 0 5 -4 6 -9 2 -5 -3 -12 -1 -16 5 -10 16 23 12 51 -6 13 -9 27
-14 31 -11 3 4 -5 11 -18 17 -20 8 -21 10 -4 9 11 -1 73 -1 137 0 l118 1 14
35 c9 20 18 51 22 70 4 21 10 32 17 28 6 -3 7 -1 3 5 -8 14 3 63 14 57 4 -3 8
11 7 31 -1 19 5 39 12 43 7 5 12 11 12 15 -1 3 -1 14 0 24 0 12 3 10 10 -8 7
-17 7 -32 -1 -49z m259 -744 c1 -5 -3 -5 -9 -2 -5 3 -10 16 -9 28 0 21 1 21 9
2 5 -11 9 -24 9 -28z m-4234 -347 c8 -29 12 -57 9 -62 -3 -4 0 -8 6 -8 7 0 10
-7 6 -15 -3 -8 -1 -15 5 -15 6 0 8 -9 4 -21 -5 -16 -4 -19 6 -14 9 6 11 3 6
-8 -4 -10 -2 -17 4 -17 6 0 8 -7 5 -16 -3 -8 -2 -12 4 -9 9 6 14 -8 11 -27 0
-5 3 -8 8 -8 5 0 17 -7 25 -16 10 -9 16 -11 16 -4 0 8 35 11 124 8 68 -2 122
0 120 4 -2 3 5 4 16 1 16 -4 11 -11 -33 -44 -28 -21 -58 -37 -67 -34 -8 2 -22
0 -30 -6 -12 -8 -9 -9 10 -5 14 3 19 3 13 0 -7 -3 -13 -11 -13 -17 0 -18 -35
-37 -58 -32 -11 2 -28 -3 -39 -11 -10 -9 -12 -13 -6 -9 7 3 23 8 35 10 23 4
23 4 3 -11 -11 -8 -28 -20 -38 -27 -18 -12 -18 -14 3 -74 12 -35 19 -67 15
-73 -3 -5 -1 -10 5 -10 7 0 10 -7 6 -15 -3 -8 0 -14 6 -12 6 1 18 -26 28 -60
10 -35 16 -63 14 -63 -15 0 -44 22 -39 30 3 6 1 18 -5 27 -9 16 -10 15 -5 -4
8 -28 -11 -31 -20 -4 -4 12 -12 18 -20 14 -8 -3 -18 2 -21 11 -3 9 -9 14 -14
11 -11 -7 -76 55 -72 68 2 7 0 9 -4 5 -9 -10 -36 11 -29 22 3 5 0 12 -6 16 -7
4 -9 3 -5 -4 3 -6 -8 -17 -25 -26 -35 -18 -52 -21 -29 -6 10 7 11 10 2 10 -7
0 -18 -11 -24 -25 -7 -15 -17 -24 -25 -21 -8 3 -11 2 -8 -4 5 -7 -104 -90
-119 -90 -2 0 -7 8 -10 18 -4 13 -4 12 -3 -3 1 -12 -9 -32 -22 -45 -13 -14
-21 -20 -18 -14 13 24 87 279 87 301 0 13 -10 29 -25 39 -14 9 -22 21 -18 27
4 6 1 7 -7 2 -8 -5 -18 -1 -27 10 -7 11 -13 16 -13 12 0 -4 -15 9 -34 29 -19
20 -39 33 -44 30 -13 -8 -43 34 -35 47 3 6 1 7 -6 3 -6 -4 -8 -13 -5 -19 4 -8
2 -7 -7 1 -12 11 -12 14 1 22 8 5 18 6 23 3 5 -3 51 -5 102 -4 65 1 105 -3
130 -14 46 -19 54 -19 31 -2 -17 12 -17 14 -3 20 10 4 27 41 43 94 15 48 31
91 36 94 5 3 8 10 7 15 -3 20 1 35 10 30 5 -4 7 3 4 14 -3 11 0 20 6 20 6 0 8
8 4 18 -4 13 -3 14 6 6 7 -6 18 -35 26 -64z m2935 -25 c6 -27 18 -67 26 -87 7
-21 11 -45 7 -55 -3 -10 -2 -15 2 -10 5 4 15 -7 22 -24 10 -25 17 -29 34 -24
16 5 19 4 14 -6 -6 -9 -3 -11 8 -6 22 8 277 9 277 1 0 -2 -10 -8 -21 -15 -17
-9 -20 -8 -13 3 4 7 -7 -2 -25 -19 -30 -30 -43 -37 -63 -34 -4 0 -10 -8 -13
-19 -6 -20 -93 -82 -105 -75 -6 4 -10 -10 -10 -40 0 -48 4 -75 12 -75 5 0 7
-4 4 -9 -4 -5 -3 -11 2 -13 4 -1 17 -35 29 -75 15 -53 17 -75 9 -83 -8 -8 -6
-9 9 -4 11 4 17 4 13 -1 -4 -4 -3 -15 4 -22 6 -8 -5 -5 -25 7 -20 12 -37 28
-37 36 0 8 -6 14 -12 12 -19 -3 -59 22 -53 33 4 5 3 9 -2 8 -21 -4 -34 3 -68
36 -20 20 -33 40 -29 47 4 7 3 8 -5 4 -6 -4 -9 -10 -7 -14 2 -4 -6 -7 -19 -7
-13 0 -21 3 -19 6 2 4 -4 13 -14 20 -14 11 -15 11 -5 0 12 -14 7 -41 -9 -41
-5 0 -6 6 -2 13 4 7 3 9 -2 4 -5 -5 -9 -12 -9 -15 0 -11 -38 -53 -57 -63 -11
-6 -19 -5 -24 3 -4 6 -3 8 3 5 5 -3 10 1 10 9 0 10 -3 12 -11 4 -6 -6 -11 -18
-11 -28 0 -9 -7 -17 -15 -17 -8 0 -26 -13 -39 -28 -13 -15 -30 -26 -37 -23 -9
3 -11 -1 -7 -12 4 -12 3 -14 -5 -7 -14 13 -4 57 11 48 5 -3 7 -2 4 4 -6 9 20
91 33 103 3 3 5 11 6 18 1 6 2 21 3 33 0 11 5 17 11 14 5 -3 9 2 8 12 -3 36 2
54 13 47 6 -3 3 6 -7 22 -17 27 -17 28 -1 15 15 -12 17 -12 11 3 -4 10 -13 15
-21 12 -26 -10 -108 56 -99 79 3 9 0 12 -9 8 -8 -3 -12 -10 -8 -16 3 -6 -10 3
-30 19 -20 16 -37 33 -37 37 0 5 -4 6 -9 2 -11 -6 -45 25 -36 33 3 3 10 1 17
-6 8 -8 19 -7 41 4 16 9 26 11 23 6 -4 -6 -2 -13 4 -17 5 -3 10 -1 10 4 0 7
32 11 85 11 50 0 85 -4 85 -10 0 -5 5 -10 11 -10 5 0 7 5 3 12 -5 8 0 9 15 5
13 -3 20 -3 17 0 -3 4 1 17 9 30 9 13 13 28 10 33 -3 5 -1 11 5 15 5 3 10 15
10 26 0 11 4 18 9 15 4 -3 6 7 4 22 -4 22 -2 24 7 12 10 -13 11 -12 6 4 -6 18
5 71 25 125 l11 26 13 -25 c8 -14 19 -47 25 -75z m-1490 -314 c0 -5 3 -17 7
-27 4 -10 2 -15 -3 -11 -5 3 -10 -3 -10 -13 0 -14 3 -16 13 -8 10 8 13 6 13
-5 0 -8 9 -36 20 -61 11 -26 15 -46 9 -46 -6 0 -3 -7 5 -15 9 -9 20 -33 26
-55 10 -36 13 -39 56 -46 25 -3 92 -4 150 -2 107 5 132 -2 92 -23 -12 -7 -29
-18 -36 -26 -8 -7 -18 -11 -23 -7 -5 3 -8 0 -7 -7 2 -7 -6 -15 -17 -17 -11 -2
-24 -9 -30 -14 -7 -8 -5 -9 5 -3 24 12 -42 -42 -82 -67 -29 -18 -36 -28 -31
-43 3 -11 9 -22 13 -25 8 -6 32 -87 34 -117 0 -11 5 -19 10 -15 5 3 6 -3 2
-13 -4 -10 -2 -21 3 -25 6 -3 12 -17 13 -30 2 -14 8 -28 13 -32 6 -4 2 -8 -8
-8 -15 0 -61 28 -149 93 -15 11 -25 23 -23 27 3 4 -9 13 -25 20 -16 7 -28 15
-26 19 2 3 -9 6 -24 6 -16 0 -28 -3 -27 -6 3 -10 -55 -59 -64 -53 -5 3 -9 0
-9 -6 0 -7 -7 -10 -14 -7 -9 4 -13 1 -10 -6 4 -13 -53 -57 -75 -57 -7 0 -9 -5
-5 -12 5 -8 0 -9 -14 -6 -12 4 -25 1 -29 -4 -3 -7 -1 -8 5 -4 8 5 10 1 6 -9
-4 -9 -10 -13 -15 -8 -8 8 16 96 55 195 13 32 25 56 28 53 3 -3 3 6 1 20 -4
16 -1 25 8 25 7 0 9 3 5 8 -4 4 -11 6 -14 6 -7 -2 -56 30 -78 51 -7 5 -24 19
-38 29 -22 16 -24 21 -14 35 12 14 11 14 -4 3 -15 -12 -23 -9 -62 17 -25 17
-47 35 -50 39 -2 4 62 6 142 5 150 -2 182 5 182 36 0 10 5 33 11 50 9 24 14
29 20 19 7 -9 8 -8 7 7 -3 29 13 95 23 95 5 0 8 3 7 8 -4 16 14 82 22 82 6 0
10 -4 10 -9z"/>
<path d="M3792 7035 c0 -16 2 -22 5 -12 2 9 2 23 0 30 -3 6 -5 -1 -5 -18z"/>
<path d="M3741 6984 c0 -11 3 -14 6 -6 3 7 2 16 -1 19 -3 4 -6 -2 -5 -13z"/>
<path d="M4120 6869 c0 -5 5 -7 10 -4 6 3 10 8 10 11 0 2 -4 4 -10 4 -5 0 -10
-5 -10 -11z"/>
<path d="M4045 6779 c-11 -17 1 -21 15 -4 8 9 8 15 2 15 -6 0 -14 -5 -17 -11z"/>
<path d="M3845 6570 c-16 -7 -17 -9 -3 -9 9 -1 20 4 23 9 7 11 7 11 -20 0z"/>
<path d="M3697 6529 c7 -7 15 -10 18 -7 3 3 -2 9 -12 12 -14 6 -15 5 -6 -5z"/>
<path d="M3620 6496 c0 -2 8 -10 18 -17 15 -13 16 -12 3 4 -13 16 -21 21 -21
13z"/>
<path d="M3983 6485 c0 -8 4 -12 9 -9 5 3 6 10 3 15 -9 13 -12 11 -12 -6z"/>
<path d="M2361 6644 c0 -11 3 -14 6 -6 3 7 2 16 -1 19 -3 4 -6 -2 -5 -13z"/>
<path d="M2271 6544 c0 -11 3 -14 6 -6 3 7 2 16 -1 19 -3 4 -6 -2 -5 -13z"/>
<path d="M2435 6159 c-11 -16 -1 -19 13 -3 7 8 8 14 3 14 -5 0 -13 -5 -16 -11z"/>
<path d="M2560 6056 c0 -8 4 -17 9 -20 5 -4 7 3 4 14 -6 23 -13 26 -13 6z"/>
<path d="M5277 6589 c7 -7 15 -10 18 -7 3 3 -2 9 -12 12 -14 6 -15 5 -6 -5z"/>
<path d="M5097 6379 c7 -7 15 -10 18 -7 3 3 -2 9 -12 12 -14 6 -15 5 -6 -5z"/>
<path d="M5421 6124 c0 -11 3 -14 6 -6 3 7 2 16 -1 19 -3 4 -6 -2 -5 -13z"/>
<path d="M5138 6113 c7 -3 16 -2 19 1 4 3 -2 6 -13 5 -11 0 -14 -3 -6 -6z"/>
<path d="M5485 6060 c3 -5 8 -10 11 -10 2 0 4 5 4 10 0 6 -5 10 -11 10 -5 0
-7 -4 -4 -10z"/>
<path d="M1058 5403 c7 -3 16 -2 19 1 4 3 -2 6 -13 5 -11 0 -14 -3 -6 -6z"/>
<path d="M1406 5403 c5 -5 12 -12 16 -18 4 -6 8 -2 8 8 0 9 -7 17 -17 17 -9 0
-12 -3 -7 -7z"/>
<path d="M1520 5361 c0 -6 4 -13 10 -16 6 -3 7 1 4 9 -7 18 -14 21 -14 7z"/>
<path d="M1063 5295 c0 -8 4 -12 9 -9 5 3 6 10 3 15 -9 13 -12 11 -12 -6z"/>
<path d="M1345 5131 c-3 -5 -2 -12 3 -15 5 -3 9 1 9 9 0 17 -3 19 -12 6z"/>
<path d="M1071 5079 c-1 -27 24 -58 36 -45 3 3 1 6 -5 6 -6 0 -16 15 -21 33
-9 30 -9 30 -10 6z"/>
<path d="M6420 5401 c0 -6 4 -13 10 -16 6 -3 7 1 4 9 -7 18 -14 21 -14 7z"/>
<path d="M6478 5403 c12 -2 32 -2 45 0 12 2 2 4 -23 4 -25 0 -35 -2 -22 -4z"/>
<path d="M6678 5403 c7 -3 16 -2 19 1 4 3 -2 6 -13 5 -11 0 -14 -3 -6 -6z"/>
<path d="M6572 5354 c10 -10 20 -16 22 -13 3 3 -5 11 -17 18 -21 13 -21 12 -5
-5z"/>
<path d="M6560 5309 c0 -5 5 -7 10 -4 6 3 10 8 10 11 0 2 -4 4 -10 4 -5 0 -10
-5 -10 -11z"/>
<path d="M6127 5289 c7 -7 15 -10 18 -7 3 3 -2 9 -12 12 -14 6 -15 5 -6 -5z"/>
<path d="M6451 5284 c0 -11 3 -14 6 -6 3 7 2 16 -1 19 -3 4 -6 -2 -5 -13z"/>
<path d="M6325 5130 c-3 -6 1 -7 9 -4 18 7 21 14 7 14 -6 0 -13 -4 -16 -10z"/>
<path d="M6166 5041 c-3 -4 4 -7 14 -6 27 2 33 10 10 12 -11 1 -22 -2 -24 -6z"/>
<path d="M876 4132 c-3 -5 1 -9 9 -9 8 0 12 4 9 9 -3 4 -7 8 -9 8 -2 0 -6 -4
-9 -8z"/>
<path d="M570 3896 c0 -2 8 -10 18 -17 15 -13 16 -12 3 4 -13 16 -21 21 -21
13z"/>
<path d="M1046 3828 c3 -5 10 -6 15 -3 13 9 11 12 -6 12 -8 0 -12 -4 -9 -9z"/>
<path d="M862 3681 c-11 -6 -10 -10 4 -15 9 -3 19 -4 22 -1 3 3 0 5 -7 5 -7 0
-9 5 -6 10 7 12 4 12 -13 1z"/>
<path d="M1046 3667 c3 -10 9 -15 12 -12 3 3 0 11 -7 18 -10 9 -11 8 -5 -6z"/>
<path d="M910 3656 c0 -2 9 -6 20 -9 11 -3 18 -1 14 4 -5 9 -34 13 -34 5z"/>
<path d="M990 3591 c0 -6 4 -13 10 -16 6 -3 7 1 4 9 -7 18 -14 21 -14 7z"/>
<path d="M1050 3580 c0 -5 5 -10 10 -10 6 0 10 5 10 10 0 6 -4 10 -10 10 -5 0
-10 -4 -10 -10z"/>
<path d="M7025 3920 c-3 -5 -1 -10 4 -10 6 0 11 5 11 10 0 6 -2 10 -4 10 -3 0
-8 -4 -11 -10z"/>
<path d="M6440 3910 c8 -5 20 -10 25 -10 6 0 3 5 -5 10 -8 5 -19 10 -25 10 -5
0 -3 -5 5 -10z"/>
<path d="M7005 3880 c-3 -5 -1 -10 4 -10 6 0 11 5 11 10 0 6 -2 10 -4 10 -3 0
-8 -4 -11 -10z"/>
<path d="M6516 3842 c-3 -5 1 -9 9 -9 8 0 12 4 9 9 -3 4 -7 8 -9 8 -2 0 -6 -4
-9 -8z"/>
<path d="M6895 3820 c-3 -6 1 -7 9 -4 18 7 21 14 7 14 -6 0 -13 -4 -16 -10z"/>
<path d="M6724 3682 c3 -5 0 -13 -6 -15 -9 -4 -10 -6 -1 -6 17 -1 25 16 12 25
-7 4 -9 3 -5 -4z"/>
<path d="M6757 3679 c7 -7 15 -10 18 -7 3 3 -2 9 -12 12 -14 6 -15 5 -6 -5z"/>
<path d="M6750 3650 c8 -5 20 -10 25 -10 6 0 3 5 -5 10 -8 5 -19 10 -25 10 -5
0 -3 -5 5 -10z"/>
<path d="M6577 3609 c7 -7 15 -10 18 -7 3 3 -2 9 -12 12 -14 6 -15 5 -6 -5z"/>
<path d="M6860 3591 c0 -8 -7 -11 -17 -6 -15 5 -16 4 -5 -6 9 -10 15 -10 24
-1 6 6 9 15 5 19 -4 3 -7 1 -7 -6z"/>
<path d="M6926 3548 c5 -8 2 -9 -10 -5 -10 4 -15 3 -11 -3 10 -15 35 -12 35 5
0 8 -5 15 -11 15 -5 0 -7 -5 -3 -12z"/>
<path d="M1260 2771 c0 -6 4 -13 10 -16 6 -3 7 1 4 9 -7 18 -14 21 -14 7z"/>
<path d="M1286 2687 c3 -10 9 -15 12 -12 3 3 0 11 -7 18 -10 9 -11 8 -5 -6z"/>
<path d="M1287 2597 c-3 -8 1 -14 8 -14 7 0 11 6 8 14 -3 7 -6 13 -8 13 -2 0
-5 -6 -8 -13z"/>
<path d="M938 2473 c6 -2 18 -2 25 0 6 3 1 5 -13 5 -14 0 -19 -2 -12 -5z"/>
<path d="M1530 2410 c0 -5 5 -10 11 -10 5 0 7 5 4 10 -3 6 -8 10 -11 10 -2 0
-4 -4 -4 -10z"/>
<path d="M1095 2386 c10 -14 19 -26 22 -26 7 0 -17 39 -28 46 -6 3 -3 -5 6
-20z"/>
<path d="M1056 2387 c3 -10 9 -15 12 -12 3 3 0 11 -7 18 -10 9 -11 8 -5 -6z"/>
<path d="M1025 2380 c3 -5 8 -10 11 -10 2 0 4 5 4 10 0 6 -5 10 -11 10 -5 0
-7 -4 -4 -10z"/>
<path d="M1455 2379 c-4 -6 -5 -12 -2 -15 2 -3 7 2 10 11 7 17 1 20 -8 4z"/>
<path d="M1074 2170 c0 -13 4 -16 10 -10 7 7 7 13 0 20 -6 6 -10 3 -10 -10z"/>
<path d="M1470 2076 c0 -2 7 -7 16 -10 8 -3 12 -2 9 4 -6 10 -25 14 -25 6z"/>
<path d="M6362 2665 c0 -16 2 -22 5 -12 2 9 2 23 0 30 -3 6 -5 -1 -5 -18z"/>
<path d="M6291 2604 c0 -11 3 -14 6 -6 3 7 2 16 -1 19 -3 4 -6 -2 -5 -13z"/>
<path d="M6709 2473 c-13 -16 -12 -17 4 -4 16 13 21 21 13 21 -2 0 -10 -8 -17
-17z"/>
<path d="M6580 2416 c0 -2 8 -10 18 -17 15 -13 16 -12 3 4 -13 16 -21 21 -21
13z"/>
<path d="M6496 2388 c3 -5 10 -6 15 -3 13 9 11 12 -6 12 -8 0 -12 -4 -9 -9z"/>
<path d="M6533 2393 c4 -3 2 -11 -3 -18 -7 -8 -5 -12 5 -12 8 0 13 3 10 5 -3
3 0 11 6 19 9 10 7 13 -6 13 -10 0 -15 -3 -12 -7z"/>
<path d="M6120 2376 c0 -2 7 -7 16 -10 8 -3 12 -2 9 4 -6 10 -25 14 -25 6z"/>
<path d="M6455 2110 c3 -5 8 -10 11 -10 2 0 4 5 4 10 0 6 -5 10 -11 10 -5 0
-7 -4 -4 -10z"/>
<path d="M6518 2103 c10 -4 9 -9 -5 -20 -17 -13 -16 -13 5 -3 26 13 29 30 5
29 -12 0 -13 -2 -5 -6z"/>
<path d="M6546 2068 c3 -4 9 -8 15 -8 5 0 9 4 9 8 0 5 -7 9 -15 9 -8 0 -12 -4
-9 -9z"/>
<path d="M2425 1421 c-6 -11 9 -23 19 -14 9 9 7 23 -3 23 -6 0 -12 -4 -16 -9z"/>
<path d="M2501 1134 c0 -11 3 -14 6 -6 3 7 2 16 -1 19 -3 4 -6 -2 -5 -13z"/>
<path d="M2510 1055 c0 -15 7 -20 27 -22 25 -1 25 0 8 10 -11 5 -23 15 -27 21
-5 7 -8 3 -8 -9z"/>
<path d="M2203 1054 c4 -4 1 -14 -6 -23 -11 -14 -10 -15 8 -1 11 8 21 15 23
16 2 1 -5 5 -15 8 -9 4 -14 4 -10 0z"/>
<path d="M2170 1040 c-9 -6 -10 -10 -3 -10 6 0 15 5 18 10 8 12 4 12 -15 0z"/>
<path d="M2135 1010 c-3 -5 -1 -10 4 -10 6 0 11 5 11 10 0 6 -2 10 -4 10 -3 0
-8 -4 -11 -10z"/>
<path d="M5240 1634 c0 -6 7 -19 16 -30 14 -18 14 -18 3 6 -14 31 -19 36 -19
24z"/>
<path d="M5251 1524 c0 -11 3 -14 6 -6 3 7 2 16 -1 19 -3 4 -6 -2 -5 -13z"/>
<path d="M5533 1365 c0 -8 4 -12 9 -9 5 3 6 10 3 15 -9 13 -12 11 -12 -6z"/>
<path d="M5015 1341 c-3 -6 -5 -11 -3 -12 27 -6 38 -5 35 4 -5 15 -24 20 -32
8z"/>
<path d="M5106 1184 c-4 -9 -4 -19 -1 -22 2 -3 7 3 11 12 4 9 4 19 1 22 -2 3
-7 -3 -11 -12z"/>
<path d="M5341 1096 c-9 -10 -8 -15 2 -19 8 -3 13 3 13 14 0 23 0 23 -15 5z"/>
<path d="M5410 1046 c0 -2 7 -7 16 -10 8 -3 12 -2 9 4 -6 10 -25 14 -25 6z"/>
<path d="M5046 1023 c-6 -14 -5 -15 5 -6 7 7 10 15 7 18 -3 3 -9 -2 -12 -12z"/>
<path d="M5450 1030 c0 -5 5 -10 11 -10 5 0 7 5 4 10 -3 6 -8 10 -11 10 -2 0
-4 -4 -4 -10z"/>
<path d="M5080 1026 c0 -2 7 -7 16 -10 8 -3 12 -2 9 4 -6 10 -25 14 -25 6z"/>
<path d="M5045 989 c-4 -6 -5 -12 -2 -15 2 -3 7 2 10 11 7 17 1 20 -8 4z"/>
<path d="M3863 995 c0 -7 8 -10 19 -7 10 2 18 6 18 7 0 1 -8 5 -18 7 -11 3
-19 0 -19 -7z"/>
<path d="M3685 990 c-3 -6 1 -7 9 -4 18 7 21 14 7 14 -6 0 -13 -4 -16 -10z"/>
<path d="M3965 769 c-4 -6 -5 -12 -2 -15 2 -3 7 2 10 11 7 17 1 20 -8 4z"/>
<path d="M3716 731 c-3 -5 2 -15 12 -22 15 -12 16 -12 5 2 -7 9 -10 19 -6 22
3 4 4 7 0 7 -3 0 -8 -4 -11 -9z"/>
<path d="M3887 719 c7 -7 15 -10 18 -7 3 3 -2 9 -12 12 -14 6 -15 5 -6 -5z"/>
<path d="M3697 699 c7 -7 15 -10 18 -7 3 3 -2 9 -12 12 -14 6 -15 5 -6 -5z"/>
<path d="M3926 695 c4 -8 11 -15 16 -15 6 0 5 6 -2 15 -7 8 -14 15 -16 15 -2
0 -1 -7 2 -15z"/>
<path d="M3596 653 c-6 -14 -5 -15 5 -6 7 7 10 15 7 18 -3 3 -9 -2 -12 -12z"/>
<path d="M3976 651 c-3 -4 6 -19 19 -31 14 -13 25 -19 25 -14 0 5 -9 15 -20
22 -12 7 -18 17 -15 22 3 6 4 10 1 10 -3 0 -7 -4 -10 -9z"/>
<path d="M3950 626 c0 -2 7 -7 16 -10 8 -3 12 -2 9 4 -6 10 -25 14 -25 6z"/>
</g>
</svg>
