<svg xmlns="http://www.w3.org/2000/svg" width="274.75" height="274.75" viewBox="0 0 274.75 274.75">
  <g id="Layer_2" data-name="Layer 2">
    <g id="header_components_copy" data-name="header components copy">
      <g>
        <rect x="1.56" y="1.56" width="271.63" height="271.63" rx="14.17" fill="none" stroke="#f8e106" stroke-miterlimit="10" stroke-width="3.12"/>
        <g>
          <path d="M137.37,228.36a91,91,0,1,1,64.34-26.65A90.35,90.35,0,0,1,137.37,228.36Zm0-178.57A87.59,87.59,0,1,0,225,137.37,87.68,87.68,0,0,0,137.37,49.79Z" fill="#f8e106"/>
          <path d="M137.37,228.36c-16.93,0-32.8-9.55-44.69-26.89-11.76-17.14-18.23-39.91-18.23-64.1s6.47-46.95,18.23-64.09c11.89-17.34,27.76-26.89,44.69-26.89s32.81,9.55,44.7,26.89c11.76,17.14,18.23,39.9,18.23,64.09s-6.47,47-18.23,64.1C170.18,218.81,154.31,228.36,137.37,228.36Zm0-178.57c-32.82,0-59.52,39.29-59.52,87.58S104.55,225,137.37,225s59.53-39.29,59.53-87.59S170.2,49.79,137.37,49.79Z" fill="#f8e106"/>
          <path d="M137.37,228.36c-9.18,0-17.65-9.69-23.85-27.28-6-17.05-9.31-39.67-9.31-63.71s3.31-46.66,9.31-63.7c6.2-17.59,14.67-27.28,23.85-27.28S155,56.08,161.23,73.67c6,17,9.31,39.67,9.31,63.7s-3.31,46.66-9.31,63.71C155,218.67,146.55,228.36,137.37,228.36Zm0-178.57c-7.51,0-15,9.12-20.64,25-5.88,16.69-9.12,38.91-9.12,62.57s3.24,45.89,9.12,62.57c5.6,15.9,13.13,25,20.64,25s15-9.12,20.65-25c5.88-16.68,9.12-38.9,9.12-62.57S163.9,91.49,158,74.8C152.42,58.91,144.89,49.79,137.37,49.79Z" fill="#f8e106"/>
          <path d="M226.66,139.17H48.15a1.73,1.73,0,0,1-1.73-1.35,1.7,1.7,0,0,1,1.67-2H226.6a1.75,1.75,0,0,1,1.73,1.35A1.7,1.7,0,0,1,226.66,139.17Z" fill="#f8e106"/>
          <path d="M215.61,98.36H59.21A1.74,1.74,0,0,1,57.48,97,1.7,1.7,0,0,1,59.14,95h156.4a1.74,1.74,0,0,1,1.73,1.35A1.7,1.7,0,0,1,215.61,98.36Z" fill="#f8e106"/>
          <path d="M215.61,179.14H59.21a1.74,1.74,0,0,1-1.73-1.35,1.7,1.7,0,0,1,1.66-2h156.4a1.73,1.73,0,0,1,1.73,1.35A1.7,1.7,0,0,1,215.61,179.14Z" fill="#f8e106"/>
          <path d="M135.87,226.6V48.15a1.74,1.74,0,0,1,1.35-1.73,1.7,1.7,0,0,1,2.05,1.67V226.66a1.7,1.7,0,0,1-2.05,1.67A1.75,1.75,0,0,1,135.87,226.6Z" fill="#f8e106"/>
        </g>
      </g>
    </g>
  </g>
</svg>
