<svg xmlns="http://www.w3.org/2000/svg" width="117.13" height="116.56" viewBox="0 0 117.13 116.56">
  <g id="Layer_2" data-name="Layer 2">
    <g id="header_components_copy" data-name="header components copy">
      <path d="M32.75,115.05,27.31,97.13c-4.81,2.76-8.84,4.25-10.17,2.88h0c-1.51-1.48.42-6.15,3.68-11.53L1.51,82.63C.26,81.92-.43,80.81.3,80.11L3.18,77.6a8.17,8.17,0,0,1,3.91-1.2l22.11.1a87.55,87.55,0,0,1,6.39-7.32L55.72,49.07,52,45.34,12.21,37.51c-4.79-1-9.66-1.13-7-5l2.43-3.25a8.76,8.76,0,0,1,6.74-3.16H78.75L96.06,8.76c7.47-7.5,16.32-10.84,19.71-7.42h0c3.39,3.39.07,12.24-7.43,19.74L91.06,38.39v65.79a8.74,8.74,0,0,1-3.16,6.73l-3.24,2.43c-3.93,2.66-4.08-2.2-5.06-7L71.39,64.77,68,61.42l-20.1,20.1a94.16,94.16,0,0,1-9,7.74L39,109.47a8.28,8.28,0,0,1-1.2,3.91l-2.52,2.88C34.57,117,33.46,116.3,32.75,115.05Z" fill="#f8e106" fill-rule="evenodd"/>
    </g>
  </g>
</svg>
