<svg xmlns="http://www.w3.org/2000/svg" width="116.87" height="117.3" viewBox="0 0 116.87 117.3">
  <g id="Layer_2" data-name="Layer 2">
    <g id="header_components_copy" data-name="header components copy">
      <path d="M1.36,116h0c-3.39-3.39-.07-12.24,7.43-19.74L25.3,79.67V13.44A8.76,8.76,0,0,1,28.46,6.7l3.25-2.43c3.92-2.65,4.08,2.21,5,7l8,40.68,4.11,4.15L69.19,35.78a95.36,95.36,0,0,1,8.27-7.13v0L77.39,7.09a8.17,8.17,0,0,1,1.2-3.91L81.1.3c.7-.73,1.81,0,2.52,1.21l5.73,19v0c5-2.95,9.24-4.58,10.64-3.18h0c1.39,1.41-.21,5.61-3.11,10.58l18.44,5.57c1.25.71,1.94,1.82,1.21,2.52l-2.88,2.51a8.17,8.17,0,0,1-3.91,1.2l-20.9-.08a97.76,97.76,0,0,1-7.34,8.54L61.22,68.42,64.9,72.1l40.7,8c4.79,1,9.65,1.13,7,5l-2.43,3.25a8.76,8.76,0,0,1-6.74,3.16H38.05l-17,17C13.6,116.05,4.75,119.38,1.36,116Z" fill="#f8e106" fill-rule="evenodd"/>
    </g>
  </g>
</svg>
