<svg xmlns="http://www.w3.org/2000/svg" viewBox="0 0 177.55 133.78"><defs><style>.cls-1{fill:#111;}</style></defs><title>Asset 1</title><g id="Layer_2" data-name="Layer 2"><g id="header_components" data-name="header components"><path class="cls-1" d="M17.62,61.41C49.31,71.57,134.86,98.25,139.51,99.94c11.09,4,26.07,6.1,29.27.6.75-1.28,1.53-14.12-21.66-23.57-5.46-2.23-17-6-32.77-10.88L84.79,3.92,72.18,0l5.44,54.55c-19.48-6.17-50.45-17-50.45-17L21.45,14.05a3.81,3.81,0,0,0-2.56-2.73l-3.72-1.15L9.53,48.41A11.84,11.84,0,0,0,17.62,61.41Z"/><path class="cls-1" d="M171.29,115.25H6.26A6.25,6.25,0,0,0,0,121.5v6a6.26,6.26,0,0,0,6.26,6.26h165a6.26,6.26,0,0,0,6.26-6.26v-6A6.27,6.27,0,0,0,171.29,115.25Z"/></g></g></svg>