<svg xmlns="http://www.w3.org/2000/svg" width="167.91" height="167.91" viewBox="0 0 167.91 167.91">
  <g id="Layer_2" data-name="Layer 2">
    <g id="button_rollovers" data-name="button rollovers">
      <g>
        <g>
          <path d="M82.65,41.48,53.93,65,37.83,66.5A6.49,6.49,0,0,0,32,72.92V94.68a6.33,6.33,0,0,0,5.88,6.42l16.1,1.52,28.72,23.5a3.6,3.6,0,0,0,5.88-2.83V44.2A3.61,3.61,0,0,0,82.65,41.48Z" fill="#fff"/>
          <path d="M109.81,57.58a2.27,2.27,0,0,0-3.27-.32l-3.91,3.48a2.19,2.19,0,0,0-.22,3,32,32,0,0,1,0,39.82,2.21,2.21,0,0,0,.22,3.05l3.91,3.48a2.2,2.2,0,0,0,3.27-.33,41.84,41.84,0,0,0,9.25-26.22A40.6,40.6,0,0,0,109.81,57.58Z" fill="#fff"/>
          <path d="M121.78,46.48a2.25,2.25,0,0,0-3.16-.21l-3.92,3.59a2.19,2.19,0,0,0-.21,3,48.29,48.29,0,0,1,0,61.58,2.2,2.2,0,0,0,.21,3l3.92,3.59a2.15,2.15,0,0,0,3.16-.22,57.7,57.7,0,0,0,0-74.42Z" fill="#fff"/>
        </g>
        <rect x="0.95" y="0.95" width="166" height="166" rx="14.17" fill="none" stroke="#f8e106" stroke-miterlimit="10" stroke-width="1.91"/>
      </g>
    </g>
  </g>
</svg>
