<svg xmlns="http://www.w3.org/2000/svg" width="461" height="199" viewBox="0 0 461 199">
  <g id="Layer_2" data-name="Layer 2">
    <g id="lost_baggage_sign" data-name="lost baggage sign">
      <g>
        <rect width="461" height="199" fill="#262525"/>
        <rect x="23" y="22" width="416" height="156" fill="#fff"/>
        <text transform="translate(48.4 85.06) scale(0.99 1)" font-size="50.17" fill="#111" font-family="Roboto-Bold, Roboto" font-weight="700" letter-spacing="0.06em">L<tspan x="30.29" y="0" letter-spacing="0.06em">o</tspan><tspan x="61.8" y="0" letter-spacing="0.07em">s</tspan><tspan x="91.28" y="0" letter-spacing="0.08em">t</tspan><tspan letter-spacing="0.06em"><tspan x="0" y="60">L</tspan><tspan x="30.32" y="60" letter-spacing="0.07em">u</tspan><tspan x="61.77" y="60" letter-spacing="0.07em">gg</tspan><tspan x="125.68" y="60" letter-spacing="0.06em">a</tspan><tspan x="155.64" y="60" letter-spacing="0.07em">g</tspan><tspan x="187.54" y="60" letter-spacing="0.08em">e</tspan></tspan></text>
        <g>
          <path d="M369,76.12H345.68V64.26c0-2.07,2-3.7,4.92-3.7h15.62c2.89,0,4.92,1.48,4.92,3.7l.14,9.49a3.18,3.18,0,0,1-.58,1.63A3,3,0,0,1,369,76.12Zm-17-5.66h14.91V65.65a.86.86,0,0,0-.85-.85H352.62a.84.84,0,0,0-.77.77l.13,4.89Z"/>
          <path d="M335.78,124.2a4.14,4.14,0,0,0,4.31,4.24,4.48,4.48,0,0,0,4.18-4.56v-5.34h-8.49Z"/>
          <path d="M371.14,118.54V124a4.32,4.32,0,0,0,4,4.4,4.26,4.26,0,0,0,4.48-4.24v-5.66Z"/>
          <circle cx="310.24" cy="144" r="3.11"/>
          <circle cx="322.26" cy="144" r="3.11"/>
          <circle cx="334.28" cy="144" r="3.11"/>
          <circle cx="346.3" cy="144" r="3.11"/>
          <circle cx="358.32" cy="144" r="3.11"/>
          <circle cx="370.35" cy="144" r="3.11"/>
          <circle cx="382.37" cy="144" r="3.11"/>
          <circle cx="394.39" cy="144" r="3.11"/>
          <circle cx="406.41" cy="144" r="3.11"/>
          <path d="M408.53,136.93H308.12a2.13,2.13,0,0,1,0-4.25H408.53a2.13,2.13,0,0,1,0,4.25Z"/>
          <path d="M389.52,71.87H327.3a5.52,5.52,0,0,0-5.66,5.35v41.63a5.34,5.34,0,0,0,5.66,5.35h62.22a5.52,5.52,0,0,0,5.66-5.35V77.22A5.52,5.52,0,0,0,389.52,71.87Zm-28.28,39c-.51,1.13-1.5,2.12-2.63,2h-.85a2.05,2.05,0,0,1-2.18-2v-.71c.06-1.13,1.05-2.12,2.18-3h.85a8.18,8.18,0,0,1,2.63,3Zm6-18.25c-.28.57-.56,1.28-.84,1.84a15.28,15.28,0,0,1-1.28,1.56c-.42.56-1,1-1.41,1.55a15.87,15.87,0,0,0-2,2.41,2.78,2.78,0,0,0-.48,2.68v.85a3.26,3.26,0,0,1-2.49,2.26h-.85a2.83,2.83,0,0,1-2.32-2.26V103a13.68,13.68,0,0,1,.62-2.12,7.87,7.87,0,0,1,1-1.84,15.23,15.23,0,0,1,1.42-1.7l1.55-1.56c.71-.7,1.42-1.55,2.12-2.26a5.84,5.84,0,0,0,1.28-3.25,5,5,0,0,0-1.13-3.11,4.31,4.31,0,0,0-3.54-1.42,4.66,4.66,0,0,0-3.68,2A7.65,7.65,0,0,0,353.8,91a2.25,2.25,0,0,1-2.12,1.83h0a2.17,2.17,0,0,1-2.12-2.68,8.05,8.05,0,0,1,.56-1.7,13.48,13.48,0,0,1,2-3.39,9.34,9.34,0,0,1,3-2.27,8.51,8.51,0,0,1,3.82-.84,12.14,12.14,0,0,1,4.24.7,6.9,6.9,0,0,1,2.83,2,7,7,0,0,1,1.56,2.83,12.13,12.13,0,0,1,.56,3.11A14.89,14.89,0,0,0,367.23,92.66Z"/>
        </g>
      </g>
    </g>
  </g>
</svg>
