<svg xmlns="http://www.w3.org/2000/svg" width="372.3" height="139.61" viewBox="0 0 372.3 139.61">
  <g id="Layer_2" data-name="Layer 2">
    <g id="header_components_copy" data-name="header components copy">
      <g>
        <rect width="372.3" height="139.61" fill="none"/>
        <text transform="translate(22.73 56.43) scale(0.99 1)" font-size="44.9" fill="#111" font-family="Roboto-Bold, Roboto" font-weight="700" letter-spacing="0.06em">B<tspan x="31.51" y="0" letter-spacing="0.06em">a</tspan><tspan x="58.38" y="0" letter-spacing="0.07em">gg</tspan><tspan x="115.68" y="0" letter-spacing="0.06em">a</tspan><tspan x="142.55" y="0" letter-spacing="0.07em">g</tspan><tspan x="171.15" y="0" letter-spacing="0.07em">e</tspan><tspan letter-spacing="0.05em"><tspan x="0" y="53.7">R</tspan><tspan x="31.05" y="53.7" letter-spacing="0.07em">e</tspan><tspan x="58.53" y="53.7" letter-spacing="0.07em">c</tspan><tspan x="84.96" y="53.7" letter-spacing="0.06em">l</tspan><tspan x="99.76" y="53.7" letter-spacing="0.06em">a</tspan><tspan x="126.64" y="53.7" letter-spacing="0.07em">i</tspan><tspan x="141.47" y="53.7" letter-spacing="0.08em">m</tspan></tspan></text>
        <path d="M341.69,43.8H318.55V34.9A3.57,3.57,0,0,0,315,31.34H290.07a3.56,3.56,0,0,0-3.56,3.56v8.9H263.37a7.12,7.12,0,0,0-7.12,7.12v51.63a7.12,7.12,0,0,0,7.12,7.12h78.32a7.12,7.12,0,0,0,7.12-7.12V50.92A7.12,7.12,0,0,0,341.69,43.8Zm-48.06-5.34h17.8V43.8h-17.8Z"/>
      </g>
    </g>
  </g>
</svg>
