<svg xmlns="http://www.w3.org/2000/svg" width="187.64" height="129.22" viewBox="0 0 187.64 129.22">
  <g id="Layer_2" data-name="Layer 2">
    <g id="home_rollover" data-name="home rollover">
      <g>
        <rect width="187.64" height="129.22" fill="#002d8e"/>
        <path d="M119.23,96.58H100.58a1.34,1.34,0,0,1-1.33-1.33V77.93H88.59V95.25a1.34,1.34,0,0,1-1.33,1.33H68.61a1.34,1.34,0,0,1-1.34-1.33V62h-4a1.33,1.33,0,0,1-.87-2.34L93,33a1.35,1.35,0,0,1,1.75,0l7.15,6.2V34a1.33,1.33,0,0,1,1.33-1.33H113.9A1.32,1.32,0,0,1,115.23,34V50.69l10.15,8.92a1.36,1.36,0,0,1,.37,1.47,1.33,1.33,0,0,1-1.25.87h-3.94v33.3A1.34,1.34,0,0,1,119.23,96.58Z" fill="#f8e106"/>
      </g>
    </g>
  </g>
</svg>
