<svg xmlns="http://www.w3.org/2000/svg" width="200.28" height="152.68" viewBox="0 0 200.28 152.68">
  <g id="Layer_2" data-name="Layer 2">
    <g id="header_components" data-name="header components">
      <g>
        <path d="M120.5,27.44H75.94V6.53C75.94,2.87,79.81,0,85.35,0h29.89c5.54,0,9.41,2.61,9.41,6.53l.28,16.73a5.27,5.27,0,0,1-1.11,2.88A5.92,5.92,0,0,1,120.5,27.44ZM88,17.46h28.55V9a1.58,1.58,0,0,0-1.63-1.5H89.23a1.53,1.53,0,0,0-1.48,1.36L88,17.46Z"/>
        <path d="M57,112.26c0,4.32,3.6,7.61,8.25,7.48a8.17,8.17,0,0,0,8-8v-9.43H57Z"/>
        <path d="M124.65,102.28V112a7.89,7.89,0,0,0,7.66,7.75c4.67.16,8.58-3.13,8.58-7.48v-10Z"/>
        <ellipse cx="8.12" cy="147.19" rx="5.95" ry="5.49"/>
        <ellipse cx="31.12" cy="147.19" rx="5.95" ry="5.49"/>
        <ellipse cx="54.13" cy="147.19" rx="5.95" ry="5.49"/>
        <ellipse cx="77.13" cy="147.19" rx="5.95" ry="5.49"/>
        <ellipse cx="100.14" cy="147.19" rx="5.95" ry="5.49"/>
        <ellipse cx="123.14" cy="147.19" rx="5.95" ry="5.49"/>
        <ellipse cx="146.15" cy="147.19" rx="5.95" ry="5.49"/>
        <ellipse cx="169.15" cy="147.19" rx="5.95" ry="5.49"/>
        <ellipse cx="192.16" cy="147.19" rx="5.95" ry="5.49"/>
        <path d="M196.22,134.71H4.06a3.75,3.75,0,1,1,0-7.48H196.22a3.75,3.75,0,1,1,0,7.48Z"/>
        <path d="M159.84,20H40.76c-6,0-10.83,4.22-10.83,9.43v73.44c0,5.46,4.6,9.43,10.83,9.43H159.84c5.95,0,10.82-4.22,10.82-9.43V29.39C170.66,24.18,165.79,20,159.84,20ZM105.71,88.81c-1,2-2.87,3.74-5,3.49H99.06a3.82,3.82,0,0,1-4.18-3.49V87.56c.12-2,2-3.74,4.18-5.23h1.62a14.77,14.77,0,0,1,5,5.23Zm11.48-32.18c-.54,1-1.08,2.25-1.62,3.24a28.42,28.42,0,0,1-2.44,2.75c-.81,1-1.9,1.74-2.71,2.74a30.54,30.54,0,0,0-3.79,4.24c-1.08,1.5-1.62,3-.92,4.74v1.5a6.07,6.07,0,0,1-4.76,4H99.33a5.26,5.26,0,0,1-4.45-4v-1a23.47,23.47,0,0,1,1.2-3.74A12.94,12.94,0,0,1,98,67.86a28.24,28.24,0,0,1,2.71-3l3-2.74c1.35-1.25,2.7-2.75,4.06-4a9.9,9.9,0,0,0,2.43-5.74A8.33,8.33,0,0,0,108,46.9c-1.63-1.75-3.79-2.49-6.77-2.49a9.1,9.1,0,0,0-7,3.49,12.93,12.93,0,0,0-2.7,5.74,4.24,4.24,0,0,1-4.06,3.24h0a3.94,3.94,0,0,1-4.06-4.74,13.13,13.13,0,0,1,1.08-3,23.11,23.11,0,0,1,3.79-6,17.69,17.69,0,0,1,13-5.49,24.78,24.78,0,0,1,8.12,1.25,13,13,0,0,1,5.41,3.49,11.9,11.9,0,0,1,3,5,19.79,19.79,0,0,1,1.08,5.49A22.39,22.39,0,0,0,117.19,56.63Z"/>
      </g>
    </g>
  </g>
</svg>
