<svg xmlns="http://www.w3.org/2000/svg" width="372.3" height="139.61" viewBox="0 0 372.3 139.61">
  <g id="Layer_2" data-name="Layer 2">
    <g id="header_components_copy" data-name="header components copy">
      <g>
        <rect width="372.3" height="139.61" fill="none"/>
        <text transform="translate(22.73 56.43) scale(0.99 1)" font-size="44.9" fill="#111" font-family="Roboto-Bold, Roboto" font-weight="700" letter-spacing="0.06em">L<tspan x="27.18" y="0" letter-spacing="0.06em">o</tspan><tspan x="55.44" y="0" letter-spacing="0.07em">s</tspan><tspan x="81.87" y="0" letter-spacing="0.07em">t</tspan><tspan letter-spacing="0.06em"><tspan x="0" y="53.7">L</tspan><tspan x="27.2" y="53.7" letter-spacing="0.07em">u</tspan><tspan x="55.4" y="53.7" letter-spacing="0.07em">gg</tspan><tspan x="112.71" y="53.7" letter-spacing="0.06em">a</tspan><tspan x="139.58" y="53.7" letter-spacing="0.07em">g</tspan><tspan x="168.18" y="53.7" letter-spacing="0.07em">e</tspan></tspan></text>
        <g>
          <path d="M309.62,48.43H288.78V37.82c0-1.85,1.82-3.31,4.4-3.31h14c2.59,0,4.41,1.33,4.41,3.31l.12,8.49a2.82,2.82,0,0,1-.51,1.46A2.65,2.65,0,0,1,309.62,48.43Zm-15.2-5.06h13.35v-4.3a.76.76,0,0,0-.76-.76H295a.73.73,0,0,0-.69.69l.11,4.37Z"/>
          <path d="M279.92,91.46a3.71,3.71,0,0,0,3.86,3.8,4,4,0,0,0,3.74-4.08V86.4h-7.6Z"/>
          <path d="M311.57,86.4v4.92a3.87,3.87,0,0,0,3.57,3.94,3.81,3.81,0,0,0,4-3.8V86.4Z"/>
          <circle cx="257.07" cy="109.18" r="2.78"/>
          <circle cx="267.83" cy="109.18" r="2.78"/>
          <circle cx="278.58" cy="109.18" r="2.78"/>
          <circle cx="289.34" cy="109.18" r="2.78"/>
          <circle cx="300.1" cy="109.18" r="2.78"/>
          <circle cx="310.86" cy="109.18" r="2.78"/>
          <circle cx="321.62" cy="109.18" r="2.78"/>
          <circle cx="332.37" cy="109.18" r="2.78"/>
          <circle cx="343.13" cy="109.18" r="2.78"/>
          <path d="M345,102.85H255.17a1.9,1.9,0,1,1,0-3.79H345a1.9,1.9,0,1,1,0,3.79Z"/>
          <path d="M328,44.64H272.33a4.94,4.94,0,0,0-5.06,4.78V86.68a4.78,4.78,0,0,0,5.06,4.78H328a4.94,4.94,0,0,0,5.06-4.78V49.42A4.94,4.94,0,0,0,328,44.64ZM302.71,79.57c-.46,1-1.34,1.9-2.36,1.77h-.76a1.84,1.84,0,0,1-1.95-1.77v-.64a4.1,4.1,0,0,1,1.95-2.65h.76a7.28,7.28,0,0,1,2.36,2.65Zm5.36-16.33c-.25.51-.5,1.14-.76,1.65a14.12,14.12,0,0,1-1.13,1.39c-.38.5-.89.88-1.27,1.39a14.16,14.16,0,0,0-1.77,2.15,2.51,2.51,0,0,0-.43,2.41V73a2.93,2.93,0,0,1-2.23,2h-.76a2.54,2.54,0,0,1-2.08-2v-.51a12.94,12.94,0,0,1,.56-1.9,7,7,0,0,1,.89-1.64,13.17,13.17,0,0,1,1.26-1.52l1.4-1.4c.63-.63,1.26-1.39,1.89-2a5.21,5.21,0,0,0,1.14-2.91,4.46,4.46,0,0,0-1-2.79A3.86,3.86,0,0,0,300.61,57a4.13,4.13,0,0,0-3.29,1.77,6.68,6.68,0,0,0-1.27,2.91,2,2,0,0,1-1.9,1.65h0a2,2,0,0,1-1.9-2.41,7.77,7.77,0,0,1,.51-1.52,11.89,11.89,0,0,1,1.77-3,8.31,8.31,0,0,1,2.66-2,7.48,7.48,0,0,1,3.42-.76,10.74,10.74,0,0,1,3.79.63A6.06,6.06,0,0,1,306.93,56a6.17,6.17,0,0,1,1.4,2.53,10.85,10.85,0,0,1,.5,2.78A12.55,12.55,0,0,0,308.07,63.24Z"/>
        </g>
      </g>
    </g>
  </g>
</svg>
