<svg xmlns="http://www.w3.org/2000/svg" width="167.91" height="167.91" viewBox="0 0 167.91 167.91">
  <g id="Layer_2" data-name="Layer 2">
    <g id="button_rollovers" data-name="button rollovers">
      <g>
        <path d="M37.47,85.23a47,47,0,0,0,93.87,1.35,3,3,0,0,0-.79-2.2,2.93,2.93,0,0,0-2.14-.92h-5.88a2.9,2.9,0,0,0-2.93,2.62,35.29,35.29,0,1,1-12.4-29.53L97.05,66.7a2.93,2.93,0,0,0,2.08,5h29.38a2.93,2.93,0,0,0,2.93-2.93V39.4a2.93,2.93,0,0,0-5-2.08L115.51,48.23c-.05,0-.07-.11-.12-.15A47,47,0,0,0,37.47,85.23Z" fill="#fff"/>
        <rect x="0.95" y="0.95" width="166" height="166" rx="14.17" fill="none" stroke="#f8e106" stroke-miterlimit="10" stroke-width="1.91"/>
      </g>
    </g>
  </g>
</svg>
